<?xml version="1.0" encoding="UTF-8" standalone="no"?>
<svg
   xmlns:dc="http://purl.org/dc/elements/1.1/"
   xmlns:cc="http://creativecommons.org/ns#"
   xmlns:rdf="http://www.w3.org/1999/02/22-rdf-syntax-ns#"
   xmlns:svg="http://www.w3.org/2000/svg"
   xmlns="http://www.w3.org/2000/svg"
   xmlns:sodipodi="http://sodipodi.sourceforge.net/DTD/sodipodi-0.dtd"
   xmlns:inkscape="http://www.inkscape.org/namespaces/inkscape"
   width="64"
   height="64"
   viewBox="0 0 16.933333 16.933333"
   version="1.1"
   id="svg1326"
   inkscape:version="1.0.2 (e86c870879, 2021-01-15, custom)"
   sodipodi:docname="ps1links.svg">
  <defs
     id="defs1320" />
  <sodipodi:namedview
     id="base"
     pagecolor="#ffffff"
     bordercolor="#666666"
     borderopacity="1.0"
     inkscape:pageopacity="0.0"
     inkscape:pageshadow="2"
     inkscape:zoom="8"
     inkscape:cx="34.362311"
     inkscape:cy="34.599712"
     inkscape:document-units="mm"
     inkscape:current-layer="layer1"
     inkscape:document-rotation="0"
     showgrid="false"
     units="px"
     inkscape:pagecheckerboard="true"
     inkscape:window-width="1920"
     inkscape:window-height="1054"
     inkscape:window-x="900"
     inkscape:window-y="325"
     inkscape:window-maximized="1" />
  <metadata
     id="metadata1323">
    <rdf:RDF>
      <cc:Work
         rdf:about="">
        <dc:format>image/svg+xml</dc:format>
        <dc:type
           rdf:resource="http://purl.org/dc/dcmitype/StillImage" />
        <dc:title></dc:title>
      </cc:Work>
    </rdf:RDF>
  </metadata>
  <g
     inkscape:label="Calque 1"
     inkscape:groupmode="layer"
     id="layer1">
    <path
       id="path1978"
       style="fill:none;fill-opacity:1;stroke-width:1;stroke-linecap:round;stroke-linejoin:round;stroke-dasharray:none;paint-order:markers fill stroke;stroke:#ffffff;stroke-opacity:1;stroke-miterlimit:4;stroke-dashoffset:0"
       d="M 3.2356521,0.59065667 C 2.3831247,0.58392323 1.5309576,0.61442377 0.67870207,0.63044527 0.6176014,1.8932565 0.52807667,3.1597822 0.62547666,4.4232618 c 0.1072404,2.2706207 0.0133094,4.5490414 0.22314433,6.8150322 0.089226,1.086877 0.0681664,2.178957 -0.001254,3.266246 -0.0274755,0.507344 -0.0587239,1.019107 -0.12837803,1.520174 0.11642696,0.111884 0.31495544,0.02119 0.46534854,0.05239 0.5045491,0.0027 1.0073356,0.04631 1.5097172,0.08702 0.2736953,0.01351 0.5480497,0.01244 0.8217152,-0.0012 C 3.682925,16.071107 3.5918874,15.836281 3.648279,15.683694 3.7386031,14.719489 3.6316373,13.752529 3.617341,12.787321 3.5829745,11.540806 3.5695462,10.28951 3.7039239,9.0479523 3.7761973,8.8694964 3.5921036,8.6710293 3.7421528,8.5219827 3.9429164,8.4197218 4.1868183,8.4620552 4.4062376,8.4429811 5.0089293,8.4411307 5.6030834,8.3211413 6.1941575,8.2154258 7.0675089,8.0289746 7.9773205,7.8909037 8.7603684,7.43409 9.3471614,7.0860999 9.8327248,6.5588519 10.120064,5.9391343 10.427078,5.2749442 10.382868,4.5100506 10.193092,3.8200816 9.991462,3.0688864 9.8320308,2.2779451 9.3780341,1.6295363 9.0794266,1.2054699 8.590179,0.94167113 8.0774754,0.89086616 6.6641162,0.75581452 5.2445083,0.70069553 3.8282491,0.60364424 3.6308335,0.59527254 3.4332477,0.5907518 3.2356521,0.59065667 Z m 11.6535519,0.2697513 c -0.933699,0.003802 -1.867103,0.0332235 -2.799868,0.0737667 -0.185887,0.12130553 -0.01488,0.37404893 -0.05687,0.55323493 0.06808,1.3313293 0.01452,2.6652839 0.04201,3.9970166 0.01787,0.2379741 0.301408,0.1412628 0.459162,0.1767301 0.26889,0.019604 0.548475,0.00246 0.808332,0.075967 0.159076,0.1403737 0.01986,0.3728183 0.04768,0.5528297 -0.03326,1.1222743 0.008,2.2453669 -0.02866,3.3677002 -0.04452,1.7386063 -0.127435,3.4761193 -0.151145,5.2152843 -0.01309,0.408297 -0.0039,0.82067 -0.03055,1.226211 0.106639,0.174273 0.367931,0.08431 0.5376,0.139361 0.771306,0.08286 1.546629,0.124365 2.322088,0.13931 0.160937,-0.803647 0.279164,-1.62248 0.23223,-2.444162 -0.03697,-0.798747 -0.150894,-1.595367 -0.105565,-2.39653 0.03764,-1.014671 0.189098,-2.0221727 0.199379,-3.0383211 0.02541,-1.2853734 0.01887,-2.5711506 0.02906,-3.8566989 -3.84e-4,-1.0677538 0.0069,-2.1365148 -0.04466,-3.20324 0.0062,-0.2005997 -0.04493,-0.4375891 -0.292795,-0.4305227 C 15.67428,0.91872361 15.283075,0.85866889 14.889204,0.86040797 Z M 4.532214,2.5652134 C 5.4161003,2.5684454 6.3282359,2.7572636 7.0689135,3.2589245 7.3257656,3.4419749 7.5034039,3.7397339 7.4980079,4.0601377 7.5237121,4.5893045 7.2276174,5.1689321 6.7009292,5.3355261 6.1957167,5.4914311 5.6602907,5.4768014 5.1405942,5.5489634 4.8387333,5.5810701 4.5373456,5.6179396 4.2370355,5.66235 4.034366,5.5631295 4.1427166,5.292038 4.0939282,5.1141361 4.054236,4.3653899 4.0202763,3.6117125 4.0943139,2.8641735 c 0.00144,-0.1702134 0.1412817,-0.313562 0.315028,-0.2965238 0.040935,-0.0018 0.081924,-0.00114 0.1228721,-0.00244 z m 6.213574,6.150529 C 10.18437,8.7716746 9.6316105,8.9028519 9.0660269,8.9189939 8.207835,8.9830748 7.3387279,8.9960643 6.4965446,9.1884686 5.8278989,9.3819271 5.2866872,9.9866288 5.2192894,10.687035 c -0.04606,0.336174 -0.025252,0.733702 0.2540067,0.969524 0.3242798,0.277665 0.7475277,0.399418 1.1514804,0.51122 0.5886688,0.155643 1.1997925,0.180592 1.7977595,0.281614 0.3710775,0.07705 0.7922957,0.185592 1.0154175,0.519682 0.2018881,0.318985 0.2348237,0.795388 -0.053269,1.075152 -0.2201973,0.241107 -0.5499038,0.320272 -0.8626493,0.350079 -0.8042041,0.117342 -1.6218264,0.03357 -2.4131495,-0.131017 -0.2112371,-0.03853 -0.4192122,-0.09518 -0.6301761,-0.13054 -0.2076416,0.009 -0.1858999,0.270388 -0.2000933,0.419514 -0.029285,0.426013 -0.076664,0.904077 0.1813864,1.274038 0.2516661,0.306617 0.6828014,0.333853 1.0505486,0.338324 0.7903631,0.01018 1.5835762,-0.01363 2.3682717,-0.113435 0.4163121,-0.06177 0.8378948,-0.138487 1.2264487,-0.303987 0.319066,-0.183075 0.563033,-0.467764 0.804584,-0.739345 0.212634,-0.248565 0.292495,-0.572616 0.335873,-0.889056 0.09993,-0.627178 0.0057,-1.293879 -0.332209,-1.838898 C 10.698951,11.891028 10.341971,11.596294 9.9311112,11.433988 9.298992,11.169311 8.6055518,11.138383 7.9431367,10.993603 7.748283,10.977937 7.5758612,10.812043 7.6415972,10.606125 c 0.080196,-0.354743 0.4511433,-0.526313 0.7735007,-0.603429 0.7430008,-0.1727392 1.5017748,0.0035 2.2417071,0.09911 0.218977,-0.02011 0.100191,-0.3191693 0.141569,-0.4716647 0.01454,-0.2609977 0.0022,-0.5225455 0.03917,-0.7819744 2.71e-4,-0.07004 0.01757,-0.1688593 -0.09176,-0.1324215 z" />
  </g>
</svg>
